<svg width="160" height="49" viewBox="0 0 160 49" fill="none" xmlns="http://www.w3.org/2000/svg">
<path d="M153.822 0H6.17843C2.76618 0 0 2.76618 0 6.17843V42.4678C0 45.8801 2.76618 48.6463 6.17843 48.6463H153.822C157.234 48.6463 160 45.8801 160 42.4678V6.17843C160 2.76618 157.234 0 153.822 0Z" fill="#263238"/>
<path d="M17.8923 40.9595C12.6535 40.9294 8.32002 30.2352 8.32002 24.7888C8.32002 15.8923 14.9939 13.9446 17.566 13.9446C18.7251 13.9446 19.9628 14.3998 21.0545 14.8026C21.8179 15.0836 22.6075 15.3737 23.0466 15.3737C23.3094 15.3737 23.9288 15.1269 24.4756 14.9104C25.6418 14.4462 27.093 13.8691 28.7829 13.8691C28.7859 13.8691 28.7899 13.8691 28.7929 13.8691C30.0547 13.8691 33.8807 14.1461 36.1808 17.6003L36.7196 18.41L35.9442 18.9951C34.8364 19.831 32.8152 21.3557 32.8152 24.376C32.8152 27.9531 35.1043 29.3288 36.204 29.9905C36.6895 30.2825 37.1919 30.5837 37.1919 31.2423C37.1919 31.6723 33.7598 40.9062 28.7758 40.9062C27.5562 40.9062 26.6942 40.5396 25.9338 40.2164C25.1644 39.889 24.5007 39.6071 23.404 39.6071C22.8481 39.6071 22.1451 39.8699 21.4009 40.1489C20.3839 40.5285 19.2327 40.9595 17.9265 40.9595H17.8923Z" fill="white"/>
<path d="M29.311 5.75977C29.4408 10.44 26.0937 13.6869 22.7505 13.4833C22.1997 9.7483 26.0933 5.75977 29.311 5.75977Z" fill="white"/>
<path d="M63.0737 14.9474H58.6823L57.7196 17.1509H57.1247L60.6076 9.32134H61.1592L64.642 17.1509H64.0471L63.0737 14.9474ZM62.8682 14.4665L60.878 9.9477L58.8986 14.4665H62.8682Z" fill="white"/>
<path d="M70.0903 11.3123L67.5377 17.1509H66.986L64.4442 11.3123H65.0175L67.2673 16.5357L69.5387 11.3123H70.0903Z" fill="white"/>
<path d="M73.0074 11.2675C73.7069 11.2675 74.2441 11.454 74.619 11.8268C74.994 12.1922 75.1815 12.7328 75.1815 13.4486V17.1509H74.6623V16.1107C74.482 16.4537 74.2188 16.7221 73.8727 16.916C73.5266 17.1024 73.112 17.1956 72.6288 17.1956C72.0015 17.1956 71.504 17.0428 71.1362 16.737C70.7757 16.4313 70.5954 16.0287 70.5954 15.5291C70.5954 15.0444 70.7612 14.6529 71.0929 14.3546C71.4318 14.0489 71.9691 13.896 72.7046 13.896H74.6407V13.4263C74.6407 12.8819 74.4965 12.4681 74.208 12.1847C73.9268 11.9014 73.5122 11.7597 72.9642 11.7597C72.5892 11.7597 72.2286 11.8268 71.8825 11.961C71.5436 12.0952 71.2552 12.2742 71.0172 12.4979L70.7468 12.0952C71.028 11.8342 71.3669 11.6329 71.7635 11.4912C72.1601 11.3421 72.5748 11.2675 73.0074 11.2675ZM72.7046 16.737C73.1733 16.737 73.5699 16.6252 73.8944 16.4015C74.2261 16.1778 74.4748 15.8534 74.6407 15.4284V14.3323H72.7154C72.1601 14.3323 71.7563 14.4366 71.504 14.6454C71.2588 14.8542 71.1362 15.1413 71.1362 15.5067C71.1362 15.887 71.2732 16.189 71.5472 16.4127C71.8212 16.6289 72.207 16.737 72.7046 16.737Z" fill="white"/>
<path d="M77.4097 11.3123H77.9505V17.1509H77.4097V11.3123ZM77.6801 9.89177C77.5576 9.89177 77.453 9.85076 77.3665 9.76874C77.2799 9.67926 77.2367 9.57114 77.2367 9.44437C77.2367 9.31761 77.2799 9.20948 77.3665 9.12C77.453 9.03052 77.5576 8.98578 77.6801 8.98578C77.8027 8.98578 77.9073 9.03052 77.9938 9.12C78.0803 9.20203 78.1236 9.30642 78.1236 9.43319C78.1236 9.55995 78.0803 9.66807 77.9938 9.75755C77.9073 9.84703 77.8027 9.89177 77.6801 9.89177Z" fill="white"/>
<path d="M80.23 8.85156H80.7708V17.1509H80.23V8.85156Z" fill="white"/>
<path d="M84.9539 11.2675C85.6534 11.2675 86.1906 11.454 86.5655 11.8268C86.9405 12.1922 87.128 12.7328 87.128 13.4486V17.1509H86.6088V16.1107C86.4285 16.4537 86.1653 16.7221 85.8192 16.916C85.4731 17.1024 85.0585 17.1956 84.5753 17.1956C83.948 17.1956 83.4505 17.0428 83.0827 16.737C82.7222 16.4313 82.5419 16.0287 82.5419 15.5291C82.5419 15.0444 82.7077 14.6529 83.0394 14.3546C83.3783 14.0489 83.9156 13.896 84.6511 13.896H86.5872V13.4263C86.5872 12.8819 86.443 12.4681 86.1545 12.1847C85.8733 11.9014 85.4587 11.7597 84.9107 11.7597C84.5357 11.7597 84.1751 11.8268 83.829 11.961C83.4901 12.0952 83.2017 12.2742 82.9637 12.4979L82.6933 12.0952C82.9745 11.8342 83.3134 11.6329 83.71 11.4912C84.1066 11.3421 84.5213 11.2675 84.9539 11.2675ZM84.6511 16.737C85.1198 16.737 85.5164 16.6252 85.8409 16.4015C86.1726 16.1778 86.4213 15.8534 86.5872 15.4284V14.3323H84.6619C84.1066 14.3323 83.7028 14.4366 83.4505 14.6454C83.2053 14.8542 83.0827 15.1413 83.0827 15.5067C83.0827 15.887 83.2197 16.189 83.4937 16.4127C83.7677 16.6289 84.1535 16.737 84.6511 16.737Z" fill="white"/>
<path d="M92.1901 11.2675C92.7165 11.2675 93.1924 11.3943 93.6178 11.6478C94.0433 11.8939 94.375 12.2444 94.6129 12.6992C94.8581 13.1466 94.9807 13.6574 94.9807 14.2316C94.9807 14.8058 94.8581 15.3165 94.6129 15.7639C94.375 16.2113 94.0433 16.5618 93.6178 16.8153C93.1924 17.0689 92.7165 17.1956 92.1901 17.1956C91.6853 17.1956 91.2274 17.0726 90.8164 16.8265C90.4126 16.573 90.0989 16.2225 89.8754 15.7751V17.1509H89.3562V8.85156H89.897V12.6433C90.1206 12.2108 90.4342 11.8753 90.8381 11.6366C91.2419 11.3906 91.6925 11.2675 92.1901 11.2675ZM92.1576 16.6923C92.5903 16.6923 92.9797 16.5879 93.3258 16.3791C93.6719 16.1703 93.9423 15.8795 94.137 15.5067C94.3389 15.1338 94.4399 14.7088 94.4399 14.2316C94.4399 13.7544 94.3389 13.3293 94.137 12.9565C93.9423 12.5837 93.6719 12.2928 93.3258 12.0841C92.9797 11.8753 92.5903 11.7709 92.1576 11.7709C91.725 11.7709 91.3356 11.8753 90.9895 12.0841C90.6506 12.2928 90.3802 12.5837 90.1783 12.9565C89.9836 13.3293 89.8862 13.7544 89.8862 14.2316C89.8862 14.7088 89.9836 15.1338 90.1783 15.5067C90.3802 15.8795 90.6506 16.1703 90.9895 16.3791C91.3356 16.5879 91.725 16.6923 92.1576 16.6923Z" fill="white"/>
<path d="M96.6551 8.85156H97.1959V17.1509H96.6551V8.85156Z" fill="white"/>
<path d="M104.245 14.3658H99.3888C99.4033 14.8207 99.515 15.2271 99.7241 15.585C99.9333 15.9354 100.214 16.2076 100.568 16.4015C100.928 16.5954 101.332 16.6923 101.779 16.6923C102.147 16.6923 102.486 16.6252 102.796 16.491C103.113 16.3493 103.376 16.1442 103.586 15.8758L103.899 16.2449C103.654 16.5506 103.344 16.7855 102.969 16.9496C102.601 17.1136 102.201 17.1956 101.768 17.1956C101.206 17.1956 100.705 17.0689 100.265 16.8153C99.8251 16.5618 99.479 16.2113 99.2266 15.7639C98.9814 15.3165 98.8588 14.8058 98.8588 14.2316C98.8588 13.6649 98.9742 13.1578 99.205 12.7104C99.4429 12.2556 99.7674 11.9014 100.178 11.6478C100.589 11.3943 101.051 11.2675 101.563 11.2675C102.075 11.2675 102.533 11.3943 102.937 11.6478C103.348 11.8939 103.668 12.2406 103.899 12.688C104.137 13.1354 104.256 13.6425 104.256 14.2092L104.245 14.3658ZM101.563 11.7597C101.166 11.7597 100.809 11.8529 100.492 12.0393C100.175 12.2183 99.9188 12.4755 99.7241 12.8111C99.5367 13.1392 99.4285 13.512 99.3997 13.9296H103.726C103.705 13.512 103.596 13.1392 103.402 12.8111C103.207 12.483 102.951 12.2257 102.634 12.0393C102.316 11.8529 101.96 11.7597 101.563 11.7597Z" fill="white"/>
<path d="M110.914 17.1956C110.38 17.1956 109.897 17.0689 109.464 16.8153C109.039 16.5618 108.704 16.2113 108.458 15.7639C108.213 15.3091 108.091 14.7983 108.091 14.2316C108.091 13.6649 108.213 13.1578 108.458 12.7104C108.704 12.2556 109.039 11.9014 109.464 11.6478C109.897 11.3943 110.38 11.2675 110.914 11.2675C111.447 11.2675 111.927 11.3943 112.352 11.6478C112.785 11.9014 113.124 12.2556 113.369 12.7104C113.614 13.1578 113.737 13.6649 113.737 14.2316C113.737 14.7983 113.614 15.3091 113.369 15.7639C113.124 16.2113 112.785 16.5618 112.352 16.8153C111.927 17.0689 111.447 17.1956 110.914 17.1956ZM110.914 16.6923C111.346 16.6923 111.732 16.5879 112.071 16.3791C112.417 16.1703 112.688 15.8795 112.882 15.5067C113.084 15.1338 113.185 14.7088 113.185 14.2316C113.185 13.7544 113.084 13.3293 112.882 12.9565C112.688 12.5837 112.417 12.2928 112.071 12.0841C111.732 11.8753 111.346 11.7709 110.914 11.7709C110.481 11.7709 110.092 11.8753 109.746 12.0841C109.407 12.2928 109.136 12.5837 108.934 12.9565C108.74 13.3293 108.642 13.7544 108.642 14.2316C108.642 14.7088 108.74 15.1338 108.934 15.5067C109.136 15.8795 109.407 16.1703 109.746 16.3791C110.092 16.5879 110.481 16.6923 110.914 16.6923Z" fill="white"/>
<path d="M118.173 11.2675C118.879 11.2675 119.438 11.4801 119.849 11.9051C120.26 12.3301 120.466 12.9416 120.466 13.7394V17.1509H119.925V13.7842C119.925 13.128 119.763 12.6284 119.438 12.2854C119.121 11.9424 118.674 11.7709 118.097 11.7709C117.434 11.7709 116.911 11.9759 116.529 12.386C116.146 12.7962 115.955 13.348 115.955 14.0414V17.1509H115.415V11.3123H115.934V12.5762C116.128 12.1661 116.417 11.8454 116.799 11.6143C117.188 11.3831 117.646 11.2675 118.173 11.2675Z" fill="white"/>
<path d="M128.272 16.7818C128.135 16.916 127.962 17.0204 127.753 17.095C127.551 17.1621 127.338 17.1956 127.114 17.1956C126.624 17.1956 126.246 17.0577 125.979 16.7818C125.712 16.4984 125.579 16.107 125.579 15.6073V11.7932H124.54V11.3123H125.579V10.0372H126.119V11.3123H127.915V11.7932H126.119V15.5514C126.119 15.9317 126.206 16.2225 126.379 16.4239C126.559 16.6177 126.822 16.7147 127.169 16.7147C127.522 16.7147 127.814 16.6066 128.045 16.3903L128.272 16.7818Z" fill="white"/>
<path d="M132.538 11.2675C133.245 11.2675 133.804 11.4801 134.215 11.9051C134.626 12.3301 134.831 12.9416 134.831 13.7394V17.1509H134.29V13.7842C134.29 13.128 134.128 12.6284 133.804 12.2854C133.486 11.9424 133.039 11.7709 132.462 11.7709C131.799 11.7709 131.276 11.9759 130.894 12.386C130.512 12.7962 130.321 13.348 130.321 14.0414V17.1509H129.78V8.85156H130.321V12.5315C130.515 12.1288 130.804 11.8193 131.186 11.6031C131.568 11.3794 132.019 11.2675 132.538 11.2675Z" fill="white"/>
<path d="M141.838 14.3658H136.982C136.996 14.8207 137.108 15.2271 137.317 15.585C137.526 15.9354 137.807 16.2076 138.161 16.4015C138.521 16.5954 138.925 16.6923 139.372 16.6923C139.74 16.6923 140.079 16.6252 140.389 16.491C140.706 16.3493 140.969 16.1442 141.178 15.8758L141.492 16.2449C141.247 16.5506 140.937 16.7855 140.562 16.9496C140.194 17.1136 139.794 17.1956 139.361 17.1956C138.799 17.1956 138.298 17.0689 137.858 16.8153C137.418 16.5618 137.072 16.2113 136.82 15.7639C136.574 15.3165 136.452 14.8058 136.452 14.2316C136.452 13.6649 136.567 13.1578 136.798 12.7104C137.036 12.2556 137.36 11.9014 137.771 11.6478C138.182 11.3943 138.644 11.2675 139.156 11.2675C139.668 11.2675 140.126 11.3943 140.529 11.6478C140.941 11.8939 141.261 12.2406 141.492 12.688C141.73 13.1354 141.849 13.6425 141.849 14.2092L141.838 14.3658ZM139.156 11.7597C138.759 11.7597 138.402 11.8529 138.085 12.0393C137.768 12.2183 137.512 12.4755 137.317 12.8111C137.13 13.1392 137.021 13.512 136.993 13.9296H141.319C141.297 13.512 141.189 13.1392 140.995 12.8111C140.8 12.483 140.544 12.2257 140.227 12.0393C139.909 11.8529 139.552 11.7597 139.156 11.7597Z" fill="white"/>
<path d="M64.6515 32.5871H58.5763L57.3941 35.3784H55.0954L60.5138 23.3594H62.714L68.1324 35.3784H65.8009L64.6515 32.5871ZM63.9291 30.8466L61.6632 25.5924L59.3973 30.8466H63.9291Z" fill="white"/>
<path d="M76.9337 26.676C77.6192 27.0651 78.1865 27.6325 78.5757 28.3179C78.9838 29.0747 79.1975 29.921 79.1975 30.7809C79.1975 31.6407 78.9838 32.487 78.5757 33.2438C78.2057 33.9436 77.6335 34.5157 76.9337 34.8857C76.1983 35.2844 75.373 35.4879 74.5365 35.4768C73.9845 35.5072 73.4326 35.4139 72.9213 35.2037C72.4099 34.9935 71.952 34.6717 71.581 34.2618V38.695H69.4465V26.1834H71.4825V27.3985C71.8373 26.9718 72.2872 26.6344 72.796 26.4133C73.3518 26.2003 73.9413 26.089 74.5365 26.0849C75.373 26.0738 76.1983 26.2773 76.9337 26.676ZM76.2441 32.8497C76.7187 32.2646 76.9778 31.5342 76.9778 30.7809C76.9778 30.0275 76.7187 29.2971 76.2441 28.712C75.9936 28.4534 75.6919 28.2497 75.3583 28.114C75.0248 27.9783 74.6666 27.9136 74.3066 27.9239C73.8157 27.9116 73.3297 28.0246 72.8946 28.2523C72.496 28.5159 72.1598 28.8633 71.9094 29.2703C71.6676 29.7371 71.5413 30.2551 71.5413 30.7809C71.5413 31.3066 71.6676 31.8246 71.9094 32.2914C72.1493 32.7064 72.4877 33.056 72.8946 33.3094C73.3297 33.5371 73.8157 33.6501 74.3066 33.6378C74.6666 33.6481 75.0248 33.5834 75.3583 33.4477C75.6919 33.312 75.9936 33.1083 76.2441 32.8497Z" fill="white"/>
<path d="M88.6899 26.6763C89.3915 27.0551 89.9721 27.6242 90.3647 28.3182C90.7538 29.0809 90.9568 29.9249 90.9568 30.7811C90.9568 31.6373 90.7538 32.4814 90.3647 33.244C89.9912 33.9525 89.4056 34.5266 88.6899 34.886C87.9572 35.2918 87.13 35.4958 86.2926 35.4771C85.746 35.5026 85.2006 35.4068 84.6953 35.1968C84.19 34.9867 83.7374 34.6675 83.37 34.262V38.6953H81.2355V26.1837H83.2715V27.3987C83.6262 26.9721 84.0761 26.6347 84.585 26.4136C85.1295 26.2009 85.7082 26.0896 86.2926 26.0852C87.13 26.0664 87.9572 26.2704 88.6899 26.6763ZM88.0003 32.85C88.5058 32.2794 88.7849 31.5434 88.7849 30.7811C88.7849 30.0188 88.5058 29.2829 88.0003 28.7123C87.7509 28.452 87.4495 28.2472 87.1156 28.1114C86.7818 27.9756 86.423 27.9118 86.0628 27.9241C85.5813 27.8998 85.103 28.0137 84.6841 28.2522C84.2651 28.4908 83.9232 28.8441 83.6984 29.2705C83.4565 29.7373 83.3303 30.2554 83.3303 30.7811C83.3303 31.3068 83.4565 31.8249 83.6984 32.2917C83.92 32.7202 84.2626 33.0742 84.6835 33.3097C85.1057 33.5404 85.582 33.6538 86.0628 33.6381C86.423 33.6504 86.7818 33.5866 87.1156 33.4508C87.4495 33.315 87.7509 33.1102 88.0003 32.85Z" fill="white"/>
<path d="M99.0008 35.0174C98.2449 34.8168 97.5399 34.4587 96.932 33.9665L97.7201 32.2261C98.2581 32.6525 98.8705 32.9754 99.5263 33.1784C100.21 33.4285 100.933 33.5509 101.661 33.5396C102.356 33.5917 103.051 33.4436 103.664 33.1127C103.868 33.0075 104.037 32.8469 104.154 32.6493C104.27 32.4517 104.328 32.2253 104.321 31.9962C104.331 31.7303 104.237 31.471 104.058 31.2738C103.793 31.0349 103.479 30.8557 103.139 30.7483L101.595 30.3214C100.837 30.1523 100.091 29.9329 99.3621 29.6647C98.8004 29.4385 98.2958 29.0908 97.8843 28.6467C97.4672 28.1149 97.2571 27.4498 97.2932 26.7749C97.2885 26.1345 97.4711 25.5067 97.8187 24.9687C98.2279 24.3817 98.7981 23.9256 99.4606 23.6552C100.303 23.3082 101.209 23.1404 102.121 23.1626C102.853 23.1594 103.583 23.2589 104.288 23.4581C104.946 23.5991 105.571 23.8667 106.127 24.2463L105.437 25.9867C104.892 25.6226 104.294 25.3456 103.664 25.1658C103.13 25.0111 102.578 24.9337 102.022 24.9359C101.334 24.8907 100.648 25.0507 100.052 25.3956C99.8499 25.5197 99.6835 25.6936 99.5685 25.9007C99.4534 26.1078 99.3937 26.341 99.3949 26.5778C99.3897 26.7363 99.4228 26.8936 99.4914 27.0366C99.56 27.1795 99.6621 27.3038 99.789 27.3988C100.054 27.6377 100.368 27.8169 100.708 27.9242L102.252 28.3511C103.002 28.5089 103.738 28.7286 104.452 29.0079C105.02 29.2224 105.527 29.5718 105.93 30.0259C106.348 30.5447 106.558 31.1999 106.521 31.8649C106.526 32.5053 106.343 33.1331 105.996 33.671C105.584 34.2485 105.014 34.6935 104.354 34.9517C103.501 35.3032 102.583 35.4711 101.661 35.4443C100.758 35.4363 99.861 35.2924 99.0008 35.0174Z" fill="white"/>
<path d="M113.91 35.0175C113.632 35.2221 113.321 35.3776 112.991 35.4772C112.62 35.5273 112.244 35.5273 111.874 35.4772C111.013 35.5354 110.164 35.2523 109.51 34.6891C108.951 34.0568 108.657 33.2336 108.689 32.3904V27.99H107.342V26.2823H108.853V24.1807H111.02V26.2823H113.45V27.99H111.02V32.3575C110.992 32.7268 111.11 33.0924 111.349 33.3755C111.47 33.4926 111.614 33.5824 111.773 33.6391C111.931 33.6957 112.1 33.7178 112.268 33.7039C112.703 33.7313 113.134 33.6033 113.483 33.3427L113.91 35.0175Z" fill="white"/>
<path d="M117.193 35.0175C116.457 34.6481 115.85 34.0642 115.453 33.3427C115.025 32.6056 114.809 31.7647 114.829 30.9127C114.787 30.0561 114.98 29.2044 115.387 28.4498C115.796 27.7454 116.401 27.175 117.128 26.8078C117.888 26.3795 118.751 26.1639 119.623 26.1839C120.507 26.1644 121.379 26.3797 122.152 26.8078C122.824 27.2029 123.38 27.7695 123.761 28.4498C124.186 29.1882 124.401 30.0282 124.385 30.8798C124.405 31.7318 124.189 32.5727 123.761 33.3099C123.354 34.0241 122.75 34.6056 122.021 34.9847C121.24 35.3876 120.371 35.5906 119.492 35.5758C118.693 35.5692 117.906 35.3781 117.193 35.0175ZM121.659 32.9815C122.134 32.3965 122.393 31.666 122.393 30.9127C122.393 30.1593 122.134 29.4289 121.659 28.8438C121.403 28.5843 121.095 28.3804 120.756 28.2448C120.417 28.1092 120.054 28.0448 119.689 28.0557C119.329 28.0434 118.97 28.1072 118.636 28.243C118.302 28.3788 118.001 28.5835 117.752 28.8438C117.492 29.1194 117.291 29.4449 117.161 29.8006C117.031 30.1563 116.975 30.5346 116.996 30.9127C116.975 31.2907 117.031 31.6691 117.161 32.0247C117.291 32.3804 117.492 32.7059 117.752 32.9815C118.001 33.2418 118.302 33.4466 118.636 33.5824C118.97 33.7182 119.329 33.782 119.689 33.7696C120.053 33.7548 120.409 33.6655 120.737 33.5073C121.064 33.3492 121.356 33.1255 121.594 32.8502L121.659 32.9815Z" fill="white"/>
<path d="M131.873 26.0852V28.1541H131.38C131.025 28.1312 130.668 28.1837 130.334 28.3082C130.001 28.4327 129.697 28.6264 129.443 28.8765C129.187 29.1598 128.99 29.4921 128.866 29.8533C128.742 30.2146 128.693 30.5972 128.72 30.9782V35.4443H126.586V26.1837H128.622V27.5301C128.993 27.0292 129.488 26.6329 130.057 26.3797C130.627 26.1265 131.253 26.0251 131.873 26.0852Z" fill="white"/>
<path d="M142.217 31.4706H134.992C135.045 31.7936 135.162 32.1025 135.337 32.379C135.512 32.6555 135.741 32.8939 136.01 33.0797C136.587 33.4827 137.277 33.6899 137.981 33.6708C138.442 33.6916 138.904 33.6145 139.334 33.4448C139.764 33.275 140.153 33.0163 140.476 32.6857L141.626 33.9992C141.222 34.4379 140.73 34.785 140.181 35.0172C139.496 35.2624 138.773 35.3847 138.046 35.3784C137.1 35.4858 136.142 35.3619 135.255 35.0172C134.547 34.5835 133.977 33.9569 133.613 33.2111C133.185 32.4739 132.969 31.633 132.989 30.781C132.981 29.9615 133.196 29.1553 133.613 28.4495C133.995 27.7388 134.577 27.1563 135.288 26.7747C136.03 26.3752 136.859 26.166 137.701 26.166C138.544 26.166 139.373 26.3752 140.115 26.7747C140.826 27.1563 141.408 27.7388 141.79 28.4495C142.197 29.2173 142.4 30.0765 142.381 30.9452C142.381 30.9452 142.217 31.2079 142.217 31.4706ZM135.846 28.4495C135.374 28.8769 135.071 29.4595 134.992 30.0914H140.181C140.129 29.4587 139.835 28.8705 139.36 28.4495C138.858 28.047 138.229 27.8373 137.586 27.8584C136.955 27.8479 136.34 28.0568 135.846 28.4495Z" fill="white"/>
</svg>
