<svg width="160" height="49" viewBox="0 0 160 49" fill="none" xmlns="http://www.w3.org/2000/svg">
<path d="M153.822 0H6.17843C2.76618 0 0 2.76618 0 6.17843V42.4678C0 45.8801 2.76618 48.6463 6.17843 48.6463H153.822C157.234 48.6463 160 45.8801 160 42.4678V6.17843C160 2.76618 157.234 0 153.822 0Z" fill="#263238"/>
<path d="M60.2554 12.0723H63.3131V12.3312C63.3131 13.5501 62.9823 14.5119 62.3209 15.2165C61.6594 15.9211 60.7566 16.2734 59.6125 16.2734C59.2649 16.2734 58.9325 16.2346 58.6152 16.1571C58.3014 16.0796 58.0111 15.9669 57.7445 15.8189C57.137 15.4701 56.6679 14.9893 56.3372 14.3763C56.0064 13.7597 55.8411 13.0604 55.8411 12.2784C55.8411 11.6337 55.9389 11.0524 56.1347 10.5345C56.3338 10.0131 56.6325 9.55513 57.0307 9.16056C57.3648 8.8294 57.7529 8.57928 58.1951 8.41018C58.6372 8.24107 59.1265 8.15652 59.6631 8.15652C60.3752 8.15652 60.9928 8.29216 61.5159 8.56342C62.0391 8.83117 62.4727 9.2363 62.817 9.77883L62.0779 10.3971C61.8113 9.92856 61.4788 9.57803 61.0806 9.34551C60.6823 9.10948 60.22 8.99146 59.6935 8.99146C58.8329 8.99146 58.1343 9.29443 57.5977 9.90038C57.0611 10.5063 56.7928 11.299 56.7928 12.2784C56.7928 13.2014 57.0645 13.9588 57.6078 14.5506C58.1546 15.1425 58.8498 15.4384 59.6935 15.4384C60.436 15.4384 61.0536 15.2042 61.5463 14.7356C62.0424 14.2635 62.3175 13.6505 62.3715 12.8966H60.2554V12.0723Z" fill="white"/>
<path d="M64.6242 16.0673V8.33091H68.5323V9.17113H65.5051V11.3906H68.5323V12.2466H65.5051V15.2112H68.5323V16.0673H64.6242Z" fill="white"/>
<path d="M71.3268 16.0673V9.20812H69.231V8.33091H74.3034V9.20812H72.2177V16.0673H71.3268Z" fill="white"/>
<path d="M78.3533 16.0673V8.33091H79.2341V16.0673H78.3533Z" fill="white"/>
<path d="M82.3222 16.0673V9.20812H80.2264V8.33091H85.2988V9.20812H83.2131V16.0673H82.3222Z" fill="white"/>
<path d="M92.9581 15.4067C93.3631 15.4067 93.7479 15.3275 94.1124 15.1689C94.4802 15.0069 94.811 14.7726 95.1046 14.4661C95.3948 14.1631 95.6159 13.8196 95.7677 13.4356C95.9196 13.0516 95.9955 12.6447 95.9955 12.2149C95.9955 11.7816 95.9179 11.3694 95.7627 10.9784C95.6108 10.5873 95.3914 10.2421 95.1046 9.94265C94.8143 9.63968 94.4853 9.40893 94.1174 9.25039C93.7529 9.09186 93.3665 9.0126 92.9581 9.0126C92.5464 9.0126 92.1566 9.09186 91.7887 9.25039C91.4209 9.40893 91.0952 9.63968 90.8117 9.94265C90.5215 10.2491 90.3004 10.5962 90.1485 10.9837C89.9967 11.3712 89.9207 11.7816 89.9207 12.2149C89.9207 12.6447 89.995 13.0499 90.1435 13.4304C90.2953 13.8108 90.5181 14.1561 90.8117 14.4661C91.1087 14.7761 91.4377 15.0104 91.7989 15.1689C92.1633 15.3275 92.5498 15.4067 92.9581 15.4067ZM96.9169 12.2149C96.9169 12.768 96.819 13.2894 96.6233 13.7791C96.4275 14.2688 96.1423 14.7039 95.7677 15.0844C95.3931 15.4648 94.9611 15.759 94.4718 15.9669C93.9858 16.1712 93.4812 16.2734 92.9581 16.2734C92.435 16.2734 91.9305 16.1712 91.4445 15.9669C90.9619 15.759 90.5333 15.4648 90.1587 15.0844C89.7807 14.7004 89.4921 14.2635 89.293 13.7738C89.0973 13.2842 88.9994 12.7645 88.9994 12.2149C88.9994 11.6618 89.0973 11.1404 89.293 10.6508C89.4921 10.1576 89.7807 9.71894 90.1587 9.33495C90.5299 8.95799 90.9585 8.66735 91.4445 8.46302C91.9305 8.25869 92.435 8.15652 92.9581 8.15652C93.4846 8.15652 93.9909 8.25869 94.4768 8.46302C94.9662 8.66735 95.3965 8.95799 95.7677 9.33495C96.1423 9.71542 96.4275 10.1523 96.6233 10.6455C96.819 11.1352 96.9169 11.6583 96.9169 12.2149Z" fill="white"/>
<path d="M98.3597 16.0673V8.02441L103.781 14.2072V8.33091H104.622V16.3685L99.2 10.2544V16.0673H98.3597Z" fill="white"/>
<path d="M83.0197 27.8502C80.5919 27.8502 78.6055 29.6573 78.6055 32.1872C78.6055 34.6809 80.5919 36.5241 83.0197 36.5241C85.4474 36.5241 87.4338 34.6809 87.4338 32.1872C87.4338 29.6573 85.4474 27.8502 83.0197 27.8502ZM83.0197 34.7893C81.6954 34.7893 80.5551 33.7051 80.5551 32.1872C80.5551 30.6331 81.6954 29.585 83.0197 29.585C84.3439 29.585 85.4842 30.6331 85.4842 32.1872C85.4842 33.7051 84.3439 34.7893 83.0197 34.7893ZM73.3822 27.8502C70.9544 27.8502 68.9681 29.6573 68.9681 32.1872C68.9681 34.6809 70.9544 36.5241 73.3822 36.5241C75.8099 36.5241 77.7963 34.6809 77.7963 32.1872C77.7963 29.6573 75.8099 27.8502 73.3822 27.8502ZM73.3822 34.7893C72.058 34.7893 70.9176 33.7051 70.9176 32.1872C70.9176 30.6331 72.058 29.585 73.3822 29.585C74.7064 29.585 75.8467 30.6331 75.8467 32.1872C75.8835 33.7051 74.7064 34.7893 73.3822 34.7893ZM61.9423 29.1513V30.9945H66.3932C66.246 32.0426 65.915 32.7654 65.3632 33.3075C64.7011 33.9581 63.7079 34.6447 61.9055 34.6447C59.1467 34.6447 57.0132 32.4763 57.0132 29.7657C57.0132 27.0551 59.1467 24.8867 61.9055 24.8867C63.3769 24.8867 64.4804 25.4649 65.2897 26.1877L66.6139 24.8867C65.5104 23.8386 64.0022 23.0435 61.9423 23.0435C58.1903 23.0435 55.0269 26.0432 55.0269 29.7657C55.0269 33.4521 58.1903 36.4879 61.9423 36.4879C63.9654 36.4879 65.5104 35.8374 66.7242 34.6086C67.9749 33.3798 68.3427 31.6812 68.3427 30.3078C68.3427 29.8741 68.306 29.4766 68.2324 29.1513H61.9423ZM108.769 30.5969C108.401 29.6211 107.297 27.8502 105.017 27.8502C102.736 27.8502 100.86 29.585 100.86 32.1872C100.86 34.6086 102.736 36.5241 105.237 36.5241C107.26 36.5241 108.438 35.2953 108.916 34.6086L107.408 33.6328C106.893 34.3556 106.231 34.8254 105.237 34.8254C104.244 34.8254 103.545 34.3918 103.104 33.5244L108.989 31.1391L108.769 30.5969ZM102.773 32.0426C102.736 30.3801 104.097 29.5127 105.09 29.5127C105.863 29.5127 106.525 29.8741 106.709 30.4162L102.773 32.0426ZM97.9908 36.235H99.9404V23.5133H97.9908V36.235ZM94.8274 28.7899H94.7538C94.3124 28.2839 93.5032 27.8141 92.4364 27.8141C90.2294 27.8141 88.2062 29.7296 88.2062 32.151C88.2062 34.5725 90.2294 36.4518 92.4364 36.4518C93.5032 36.4518 94.3124 35.982 94.7538 35.476H94.8274V36.0904C94.8274 37.7529 93.9446 38.6203 92.4732 38.6203C91.2961 38.6203 90.5604 37.789 90.2661 37.0662L88.5741 37.7529C89.0523 38.9094 90.3397 40.3189 92.4732 40.3189C94.7538 40.3189 96.6666 39.0178 96.6666 35.8013V28.1032H94.8274V28.7899ZM92.6203 34.7893C91.2961 34.7893 90.1558 33.7051 90.1558 32.1872C90.1558 30.6692 91.2593 29.5489 92.6203 29.5489C93.9446 29.5489 94.9745 30.6692 94.9745 32.1872C94.9745 33.6689 93.9446 34.7893 92.6203 34.7893ZM117.854 23.5133H113.22V36.1988H115.132V31.392H117.818C119.951 31.392 122.048 29.8741 122.048 27.4527C122.048 25.0312 119.988 23.5133 117.854 23.5133ZM117.891 29.6573H115.132V25.3203H117.891C119.326 25.3203 120.135 26.4769 120.135 27.4888C120.135 28.4646 119.326 29.6573 117.891 29.6573ZM129.809 27.8141C128.411 27.8141 126.977 28.4285 126.351 29.7657L128.08 30.4524C128.448 29.7657 129.11 29.5127 129.846 29.5127C130.839 29.5127 131.869 30.091 131.869 31.1391V31.2836C131.538 31.1029 130.766 30.7776 129.846 30.7776C128.007 30.7776 126.131 31.7896 126.131 33.6328C126.131 35.3314 127.639 36.4157 129.331 36.4157C130.618 36.4157 131.354 35.8374 131.796 35.1869H131.869V36.1627H133.745V31.3198C133.745 29.079 132.016 27.8141 129.809 27.8141ZM129.588 34.7893C128.963 34.7893 128.08 34.464 128.08 33.7051C128.08 32.7293 129.184 32.3317 130.14 32.3317C130.986 32.3317 131.391 32.5124 131.906 32.7654C131.722 33.9581 130.692 34.7893 129.588 34.7893ZM140.513 28.1032L138.306 33.5967H138.233L135.952 28.1032H133.892L137.35 35.8013L135.4 40.0659H137.424L142.684 28.1032H140.513ZM123.151 36.235H125.064V23.5133H123.151V36.235Z" fill="white"/>
<path d="M8.32147 7.61999C7.92551 8.06543 7.67804 8.70886 7.67804 9.59976V40.3853C7.67804 41.2267 7.92551 41.9196 8.32147 42.3651L8.42046 42.464L25.6445 25.24V25.042V24.844L8.42046 7.521L8.32147 7.61999Z" fill="url(#paint0_linear_130_2879)"/>
<path d="M31.3857 30.9314L25.6443 25.19V24.9921V24.7941L31.3857 19.0527L31.5342 19.1022L38.3644 22.9628C40.2947 24.0517 40.2947 25.883 38.3644 26.9718L31.5342 30.8324L31.3857 30.9314Z" fill="url(#paint1_linear_130_2879)"/>
<path d="M31.5339 30.8325L25.644 24.9922L8.32098 42.3152C8.96441 43.0082 10.0038 43.0576 11.1917 42.4142L31.5339 30.8325Z" fill="url(#paint2_linear_130_2879)"/>
<path d="M31.5344 19.1024L11.1922 7.52069C10.0043 6.82777 8.96496 6.92676 8.32153 7.61968L25.6446 24.9427L31.5344 19.1024Z" fill="url(#paint3_linear_130_2879)"/>
<path opacity="0.2" d="M31.3859 30.7334L11.1922 42.2161C10.0538 42.8595 9.06395 42.81 8.42052 42.2161L8.32153 42.3151L8.42052 42.4141C9.06395 43.008 10.1033 43.0575 11.1922 42.4141L31.5344 30.8819L31.3859 30.7334Z" fill="black"/>
<path opacity="0.12" d="M8.32164 42.1175C7.92558 41.6719 7.67804 41.0283 7.67804 40.1372V40.3352C7.67804 41.1769 7.92558 41.87 8.32164 42.3155L8.42065 42.2165L8.32164 42.1175Z" fill="black"/>
<path opacity="0.12" d="M38.3148 26.774L31.3856 30.7335L31.5341 30.882L38.3643 27.0215C39.3542 26.477 39.7997 25.7346 39.7997 24.9922C39.7007 25.6356 39.2057 26.279 38.3148 26.774Z" fill="black"/>
<path opacity="0.25" d="M11.1919 7.76764L38.3148 23.2099C39.2057 23.7048 39.7007 24.3483 39.7502 24.9917C39.7502 24.2493 39.2552 23.5564 38.3148 22.9624L11.1919 7.52017C9.26162 6.43129 7.6778 7.32219 7.6778 9.54944V9.74742C7.6778 7.56966 9.26162 6.62927 11.1919 7.76764Z" fill="white"/>
<defs>
<linearGradient id="paint0_linear_130_2879" x1="24.115" y1="9.25587" x2="0.760454" y2="32.6104" gradientUnits="userSpaceOnUse">
<stop stop-color="#00A0FF"/>
<stop offset="0.00657445" stop-color="#00A1FF"/>
<stop offset="0.2601" stop-color="#00BEFF"/>
<stop offset="0.5122" stop-color="#00D2FF"/>
<stop offset="0.7604" stop-color="#00DFFF"/>
<stop offset="1" stop-color="#00E3FF"/>
</linearGradient>
<linearGradient id="paint1_linear_130_2879" x1="40.8624" y1="24.9691" x2="7.18977" y2="24.9691" gradientUnits="userSpaceOnUse">
<stop stop-color="#FFE000"/>
<stop offset="0.4087" stop-color="#FFBD00"/>
<stop offset="0.7754" stop-color="#FFA500"/>
<stop offset="1" stop-color="#FF9C00"/>
</linearGradient>
<linearGradient id="paint2_linear_130_2879" x1="28.3273" y1="28.1625" x2="-3.34341" y2="59.8332" gradientUnits="userSpaceOnUse">
<stop stop-color="#FF3A44"/>
<stop offset="1" stop-color="#C31162"/>
</linearGradient>
<linearGradient id="paint3_linear_130_2879" x1="3.93341" y1="-2.61977" x2="18.0757" y2="11.5225" gradientUnits="userSpaceOnUse">
<stop stop-color="#32A071"/>
<stop offset="0.0685" stop-color="#2DA771"/>
<stop offset="0.4762" stop-color="#15CF74"/>
<stop offset="0.8009" stop-color="#06E775"/>
<stop offset="1" stop-color="#00F076"/>
</linearGradient>
</defs>
</svg>
